<mxfile host="app.diagrams.net" modified="2023-02-15T05:28:59.115Z" agent="5.0 (Windows NT 10.0; Win64; x64) AppleWebKit/537.36 (KHTML, like Gecko) Chrome/110.0.0.0 Safari/537.36 Edg/110.0.1587.41" version="20.7.2" etag="nniO3fmImNEq7qZARY1_" type="github">
  <diagram id="RPHbYfEEB1qxLwdHQrgB" name="第 1 页">
    <mxGraphModel dx="1050" dy="580" grid="1" gridSize="10" guides="1" tooltips="1" connect="1" arrows="1" fold="1" page="1" pageScale="1" pageWidth="980" pageHeight="1390" math="0" shadow="0">
      <root>
        <mxCell id="0" />
        <mxCell id="1" parent="0" />
        <mxCell id="T8XuXgVxlpSm19Ft0mqX-40" value="产品" style="rounded=0;whiteSpace=wrap;html=1;" vertex="1" parent="1">
          <mxGeometry x="680" y="80" width="80" height="40" as="geometry" />
        </mxCell>
        <mxCell id="T8XuXgVxlpSm19Ft0mqX-41" value="存放与组成" style="rhombus;whiteSpace=wrap;html=1;" vertex="1" parent="1">
          <mxGeometry x="680" y="160" width="80" height="40" as="geometry" />
        </mxCell>
        <mxCell id="T8XuXgVxlpSm19Ft0mqX-42" value="零件" style="rounded=0;whiteSpace=wrap;html=1;" vertex="1" parent="1">
          <mxGeometry x="600" y="240" width="80" height="40" as="geometry" />
        </mxCell>
        <mxCell id="T8XuXgVxlpSm19Ft0mqX-44" value="仓库" style="rounded=0;whiteSpace=wrap;html=1;" vertex="1" parent="1">
          <mxGeometry x="760" y="240" width="80" height="40" as="geometry" />
        </mxCell>
        <mxCell id="T8XuXgVxlpSm19Ft0mqX-45" value="制作" style="rhombus;whiteSpace=wrap;html=1;" vertex="1" parent="1">
          <mxGeometry x="600" y="320" width="80" height="40" as="geometry" />
        </mxCell>
        <mxCell id="T8XuXgVxlpSm19Ft0mqX-46" value="原材料" style="rounded=0;whiteSpace=wrap;html=1;" vertex="1" parent="1">
          <mxGeometry x="600" y="400" width="80" height="40" as="geometry" />
        </mxCell>
        <mxCell id="T8XuXgVxlpSm19Ft0mqX-47" value="存放" style="rhombus;whiteSpace=wrap;html=1;" vertex="1" parent="1">
          <mxGeometry x="760" y="320" width="80" height="40" as="geometry" />
        </mxCell>
        <mxCell id="T8XuXgVxlpSm19Ft0mqX-48" value="" style="endArrow=none;html=1;rounded=0;exitX=0.5;exitY=1;exitDx=0;exitDy=0;entryX=0.5;entryY=0;entryDx=0;entryDy=0;" edge="1" parent="1" source="T8XuXgVxlpSm19Ft0mqX-40" target="T8XuXgVxlpSm19Ft0mqX-41">
          <mxGeometry width="50" height="50" relative="1" as="geometry">
            <mxPoint x="289.5" y="360" as="sourcePoint" />
            <mxPoint x="289.5" y="400" as="targetPoint" />
          </mxGeometry>
        </mxCell>
        <mxCell id="T8XuXgVxlpSm19Ft0mqX-49" value="" style="endArrow=none;html=1;rounded=0;exitX=0.5;exitY=1;exitDx=0;exitDy=0;entryX=0.5;entryY=0;entryDx=0;entryDy=0;" edge="1" parent="1">
          <mxGeometry width="50" height="50" relative="1" as="geometry">
            <mxPoint x="639.5" y="360" as="sourcePoint" />
            <mxPoint x="639.5" y="400" as="targetPoint" />
          </mxGeometry>
        </mxCell>
        <mxCell id="T8XuXgVxlpSm19Ft0mqX-50" value="" style="endArrow=none;html=1;rounded=0;exitX=0.5;exitY=1;exitDx=0;exitDy=0;entryX=0.5;entryY=0;entryDx=0;entryDy=0;" edge="1" parent="1">
          <mxGeometry width="50" height="50" relative="1" as="geometry">
            <mxPoint x="799.5" y="280" as="sourcePoint" />
            <mxPoint x="799.5" y="320" as="targetPoint" />
          </mxGeometry>
        </mxCell>
        <mxCell id="T8XuXgVxlpSm19Ft0mqX-51" value="" style="endArrow=none;html=1;rounded=0;exitX=0.5;exitY=1;exitDx=0;exitDy=0;entryX=0.5;entryY=0;entryDx=0;entryDy=0;" edge="1" parent="1">
          <mxGeometry width="50" height="50" relative="1" as="geometry">
            <mxPoint x="639.5" y="280" as="sourcePoint" />
            <mxPoint x="639.5" y="320" as="targetPoint" />
          </mxGeometry>
        </mxCell>
        <mxCell id="T8XuXgVxlpSm19Ft0mqX-52" value="" style="endArrow=none;html=1;rounded=0;exitX=0;exitY=1;exitDx=0;exitDy=0;entryX=0.5;entryY=0;entryDx=0;entryDy=0;" edge="1" parent="1" source="T8XuXgVxlpSm19Ft0mqX-41" target="T8XuXgVxlpSm19Ft0mqX-42">
          <mxGeometry width="50" height="50" relative="1" as="geometry">
            <mxPoint x="760" y="160" as="sourcePoint" />
            <mxPoint x="760" y="200" as="targetPoint" />
          </mxGeometry>
        </mxCell>
        <mxCell id="T8XuXgVxlpSm19Ft0mqX-53" value="" style="endArrow=none;html=1;rounded=0;exitX=1;exitY=1;exitDx=0;exitDy=0;entryX=0.5;entryY=0;entryDx=0;entryDy=0;" edge="1" parent="1" source="T8XuXgVxlpSm19Ft0mqX-41" target="T8XuXgVxlpSm19Ft0mqX-44">
          <mxGeometry width="50" height="50" relative="1" as="geometry">
            <mxPoint x="770" y="170" as="sourcePoint" />
            <mxPoint x="770" y="210" as="targetPoint" />
          </mxGeometry>
        </mxCell>
        <mxCell id="T8XuXgVxlpSm19Ft0mqX-54" value="" style="endArrow=none;html=1;rounded=0;exitX=0;exitY=1;exitDx=0;exitDy=0;entryX=1;entryY=0.5;entryDx=0;entryDy=0;" edge="1" parent="1" source="T8XuXgVxlpSm19Ft0mqX-47" target="T8XuXgVxlpSm19Ft0mqX-46">
          <mxGeometry width="50" height="50" relative="1" as="geometry">
            <mxPoint x="780" y="180" as="sourcePoint" />
            <mxPoint x="780" y="220" as="targetPoint" />
          </mxGeometry>
        </mxCell>
        <mxCell id="T8XuXgVxlpSm19Ft0mqX-55" value="m" style="text;html=1;align=center;verticalAlign=middle;resizable=0;points=[];autosize=1;strokeColor=none;fillColor=none;" vertex="1" parent="1">
          <mxGeometry x="725" y="125" width="30" height="30" as="geometry" />
        </mxCell>
        <mxCell id="T8XuXgVxlpSm19Ft0mqX-56" value="n" style="text;html=1;align=center;verticalAlign=middle;resizable=0;points=[];autosize=1;strokeColor=none;fillColor=none;" vertex="1" parent="1">
          <mxGeometry x="645" y="185" width="30" height="30" as="geometry" />
        </mxCell>
        <mxCell id="T8XuXgVxlpSm19Ft0mqX-57" value="1" style="text;html=1;align=center;verticalAlign=middle;resizable=0;points=[];autosize=1;strokeColor=none;fillColor=none;" vertex="1" parent="1">
          <mxGeometry x="765" y="185" width="30" height="30" as="geometry" />
        </mxCell>
        <mxCell id="T8XuXgVxlpSm19Ft0mqX-58" value="m" style="text;html=1;align=center;verticalAlign=middle;resizable=0;points=[];autosize=1;strokeColor=none;fillColor=none;" vertex="1" parent="1">
          <mxGeometry x="645" y="285" width="30" height="30" as="geometry" />
        </mxCell>
        <mxCell id="T8XuXgVxlpSm19Ft0mqX-59" value="n" style="text;html=1;align=center;verticalAlign=middle;resizable=0;points=[];autosize=1;strokeColor=none;fillColor=none;" vertex="1" parent="1">
          <mxGeometry x="645" y="365" width="30" height="30" as="geometry" />
        </mxCell>
        <mxCell id="T8XuXgVxlpSm19Ft0mqX-60" value="1" style="text;html=1;align=center;verticalAlign=middle;resizable=0;points=[];autosize=1;strokeColor=none;fillColor=none;" vertex="1" parent="1">
          <mxGeometry x="805" y="285" width="30" height="30" as="geometry" />
        </mxCell>
        <mxCell id="T8XuXgVxlpSm19Ft0mqX-61" value="n" style="text;html=1;align=center;verticalAlign=middle;resizable=0;points=[];autosize=1;strokeColor=none;fillColor=none;" vertex="1" parent="1">
          <mxGeometry x="735" y="385" width="30" height="30" as="geometry" />
        </mxCell>
        <mxCell id="T8XuXgVxlpSm19Ft0mqX-62" value="" style="endArrow=none;html=1;rounded=0;" edge="1" parent="1">
          <mxGeometry width="50" height="50" relative="1" as="geometry">
            <mxPoint x="840" y="340" as="sourcePoint" />
            <mxPoint x="880" y="340" as="targetPoint" />
          </mxGeometry>
        </mxCell>
        <mxCell id="T8XuXgVxlpSm19Ft0mqX-63" value="" style="ellipse;whiteSpace=wrap;html=1;" vertex="1" parent="1">
          <mxGeometry x="880" y="320" width="80" height="40" as="geometry" />
        </mxCell>
      </root>
    </mxGraphModel>
  </diagram>
</mxfile>
